<?xml version="1.0" standalone="no"?>
<!DOCTYPE svg PUBLIC "-//W3C//DTD SVG 20010904//EN"
 "http://www.w3.org/TR/2001/REC-SVG-20010904/DTD/svg10.dtd">
<svg version="1.0" xmlns="http://www.w3.org/2000/svg"
 width="512.000000pt" height="512.000000pt" viewBox="0 0 512.000000 512.000000"
 preserveAspectRatio="xMidYMid meet">

<g transform="translate(0.000000,512.000000) scale(0.100000,-0.100000)"
fill="#000000" stroke="none">
<path d="M3383 4258 c-44 -12 -73 -51 -73 -102 0 -41 1 -42 722 -763 l723
-723 -2340 -2 c-2250 -3 -2341 -4 -2367 -21 -58 -39 -58 -135 0 -174 26 -17
117 -18 2367 -21 l2340 -2 -723 -723 c-721 -721 -722 -722 -722 -763 0 -70 59
-118 130 -106 35 6 1666 1636 1676 1675 3 15 3 39 0 55 -10 38 -1641 1668
-1676 1674 -14 2 -39 1 -57 -4z"/>
</g>
</svg>
